# xmcd
#
# Track frame offsets:
#	150
#	14596
#	27932
#	42580
#	55173
#	67999
#	81800
#	91581
#	102989
#	115417
#	127050
#	139199
#	152610
#	166058
#	182799
#	192812
#	204948
#	215422
#	231392
#	244683
#	255247
#	270173
#
# Disc length: 3753 seconds
#
# Revision: 1
# Processed by: cddbd v1.5.2PL0 Copyright (c) Steve Scherf et al.
# Submitted via: EZCDAudioConverter 2.8.0.1
#
DISCID=260ea716
DTITLE=Narvel Felts - Greatest Hits Vol 1 and Narvel The Marvel
DYEAR=19
DGENRE=Country
TTITLE0=Drift Away
TTITLE1=Before You Have To Go
TTITLE2=I Want To Stay
TTITLE3=Fraulein
TTITLE4=Raindrops
TTITLE5=When Your Good Love Was Mine
TTITLE6=Foggy Misty Morning
TTITLE7=Look Homeward Angell
TTITLE8=She Loves Me Like A Rock
TTITLE9=(I Can) Wrap My Arms Around The World
TTITLE10=All In The Name Of Love
TTITLE11=Somebody Hold Me (Until She Passes By)
TTITLE12=Lonely Teardrops
TTITLE13=Baby Warm
TTITLE14=Blue Darlin'
TTITLE15=I'm Afraid To Be Alone
TTITLE16=The End
TTITLE17=Don't Worry
TTITLE18=A Band Of Gold (And Someone New That's Messin' Up My Mind)
TTITLE19=Blue Suede Shoes
TTITLE20=I Just Had You On My Mind
TTITLE21=Away
EXTD=
EXTT0=
EXTT1=
EXTT2=
EXTT3=
EXTT4=
EXTT5=
EXTT6=
EXTT7=
EXTT8=
EXTT9=
EXTT10=
EXTT11=
EXTT12=
EXTT13=
EXTT14=
EXTT15=
EXTT16=
EXTT17=
EXTT18=
EXTT19=
EXTT20=
EXTT21=
PLAYORDER=
